<?xml version="1.0" encoding="utf-8"?>
<svg xmlns="http://www.w3.org/2000/svg" xmlns:xlink="http://www.w3.org/1999/xlink" width="600" height="400" viewBox="0 0 2400 1600">
<defs>
  <clipPath id="clip900">
    <rect x="0" y="0" width="2400" height="1600"/>
  </clipPath>
</defs>
<path clip-path="url(#clip900)" d="M0 1600 L2400 1600 L2400 0 L0 0  Z" fill="#ffffff" fill-rule="evenodd" fill-opacity="1"/>
<defs>
  <clipPath id="clip901">
    <rect x="480" y="0" width="1681" height="1600"/>
  </clipPath>
</defs>
<path clip-path="url(#clip900)" d="M202.227 1423.18 L2352.76 1423.18 L2352.76 47.2441 L202.227 47.2441  Z" fill="#ffffff" fill-rule="evenodd" fill-opacity="1"/>
<defs>
  <clipPath id="clip902">
    <rect x="202" y="47" width="2152" height="1377"/>
  </clipPath>
</defs>
<polyline clip-path="url(#clip902)" style="stroke:#000000; stroke-linecap:round; stroke-linejoin:round; stroke-width:2; stroke-opacity:0.1; fill:none" points="258.812,1423.18 258.812,47.2441 "/>
<polyline clip-path="url(#clip902)" style="stroke:#000000; stroke-linecap:round; stroke-linejoin:round; stroke-width:2; stroke-opacity:0.1; fill:none" points="768.117,1423.18 768.117,47.2441 "/>
<polyline clip-path="url(#clip902)" style="stroke:#000000; stroke-linecap:round; stroke-linejoin:round; stroke-width:2; stroke-opacity:0.1; fill:none" points="1277.42,1423.18 1277.42,47.2441 "/>
<polyline clip-path="url(#clip902)" style="stroke:#000000; stroke-linecap:round; stroke-linejoin:round; stroke-width:2; stroke-opacity:0.1; fill:none" points="1786.73,1423.18 1786.73,47.2441 "/>
<polyline clip-path="url(#clip902)" style="stroke:#000000; stroke-linecap:round; stroke-linejoin:round; stroke-width:2; stroke-opacity:0.1; fill:none" points="2296.03,1423.18 2296.03,47.2441 "/>
<polyline clip-path="url(#clip902)" style="stroke:#000000; stroke-linecap:round; stroke-linejoin:round; stroke-width:2; stroke-opacity:0.1; fill:none" points="202.227,1423.18 2352.76,1423.18 "/>
<polyline clip-path="url(#clip902)" style="stroke:#000000; stroke-linecap:round; stroke-linejoin:round; stroke-width:2; stroke-opacity:0.1; fill:none" points="202.227,1147.99 2352.76,1147.99 "/>
<polyline clip-path="url(#clip902)" style="stroke:#000000; stroke-linecap:round; stroke-linejoin:round; stroke-width:2; stroke-opacity:0.1; fill:none" points="202.227,872.806 2352.76,872.806 "/>
<polyline clip-path="url(#clip902)" style="stroke:#000000; stroke-linecap:round; stroke-linejoin:round; stroke-width:2; stroke-opacity:0.1; fill:none" points="202.227,597.618 2352.76,597.618 "/>
<polyline clip-path="url(#clip902)" style="stroke:#000000; stroke-linecap:round; stroke-linejoin:round; stroke-width:2; stroke-opacity:0.1; fill:none" points="202.227,322.431 2352.76,322.431 "/>
<polyline clip-path="url(#clip902)" style="stroke:#000000; stroke-linecap:round; stroke-linejoin:round; stroke-width:2; stroke-opacity:0.1; fill:none" points="202.227,47.2441 2352.76,47.2441 "/>
<polyline clip-path="url(#clip900)" style="stroke:#000000; stroke-linecap:round; stroke-linejoin:round; stroke-width:4; stroke-opacity:1; fill:none" points="202.227,1423.18 2352.76,1423.18 "/>
<polyline clip-path="url(#clip900)" style="stroke:#000000; stroke-linecap:round; stroke-linejoin:round; stroke-width:4; stroke-opacity:1; fill:none" points="258.812,1423.18 258.812,1404.28 "/>
<polyline clip-path="url(#clip900)" style="stroke:#000000; stroke-linecap:round; stroke-linejoin:round; stroke-width:4; stroke-opacity:1; fill:none" points="768.117,1423.18 768.117,1404.28 "/>
<polyline clip-path="url(#clip900)" style="stroke:#000000; stroke-linecap:round; stroke-linejoin:round; stroke-width:4; stroke-opacity:1; fill:none" points="1277.42,1423.18 1277.42,1404.28 "/>
<polyline clip-path="url(#clip900)" style="stroke:#000000; stroke-linecap:round; stroke-linejoin:round; stroke-width:4; stroke-opacity:1; fill:none" points="1786.73,1423.18 1786.73,1404.28 "/>
<polyline clip-path="url(#clip900)" style="stroke:#000000; stroke-linecap:round; stroke-linejoin:round; stroke-width:4; stroke-opacity:1; fill:none" points="2296.03,1423.18 2296.03,1404.28 "/>
<path clip-path="url(#clip900)" d="M205.34 1468.75 L235.016 1468.75 L235.016 1472.69 L205.34 1472.69 L205.34 1468.75 Z" fill="#000000" fill-rule="nonzero" fill-opacity="1" /><path clip-path="url(#clip900)" d="M245.919 1481.64 L253.558 1481.64 L253.558 1455.28 L245.247 1456.95 L245.247 1452.69 L253.511 1451.02 L258.187 1451.02 L258.187 1481.64 L265.826 1481.64 L265.826 1485.58 L245.919 1485.58 L245.919 1481.64 Z" fill="#000000" fill-rule="nonzero" fill-opacity="1" /><path clip-path="url(#clip900)" d="M275.27 1479.7 L280.155 1479.7 L280.155 1485.58 L275.27 1485.58 L275.27 1479.7 Z" fill="#000000" fill-rule="nonzero" fill-opacity="1" /><path clip-path="url(#clip900)" d="M300.34 1454.1 Q296.729 1454.1 294.9 1457.66 Q293.094 1461.2 293.094 1468.33 Q293.094 1475.44 294.9 1479.01 Q296.729 1482.55 300.34 1482.55 Q303.974 1482.55 305.78 1479.01 Q307.608 1475.44 307.608 1468.33 Q307.608 1461.2 305.78 1457.66 Q303.974 1454.1 300.34 1454.1 M300.34 1450.39 Q306.15 1450.39 309.205 1455 Q312.284 1459.58 312.284 1468.33 Q312.284 1477.06 309.205 1481.67 Q306.15 1486.25 300.34 1486.25 Q294.53 1486.25 291.451 1481.67 Q288.395 1477.06 288.395 1468.33 Q288.395 1459.58 291.451 1455 Q294.53 1450.39 300.34 1450.39 Z" fill="#000000" fill-rule="nonzero" fill-opacity="1" /><path clip-path="url(#clip900)" d="M715.143 1468.75 L744.819 1468.75 L744.819 1472.69 L715.143 1472.69 L715.143 1468.75 Z" fill="#000000" fill-rule="nonzero" fill-opacity="1" /><path clip-path="url(#clip900)" d="M764.911 1454.1 Q761.3 1454.1 759.471 1457.66 Q757.666 1461.2 757.666 1468.33 Q757.666 1475.44 759.471 1479.01 Q761.3 1482.55 764.911 1482.55 Q768.545 1482.55 770.351 1479.01 Q772.179 1475.44 772.179 1468.33 Q772.179 1461.2 770.351 1457.66 Q768.545 1454.1 764.911 1454.1 M764.911 1450.39 Q770.721 1450.39 773.777 1455 Q776.855 1459.58 776.855 1468.33 Q776.855 1477.06 773.777 1481.67 Q770.721 1486.25 764.911 1486.25 Q759.101 1486.25 756.022 1481.67 Q752.967 1477.06 752.967 1468.33 Q752.967 1459.58 756.022 1455 Q759.101 1450.39 764.911 1450.39 Z" fill="#000000" fill-rule="nonzero" fill-opacity="1" /><path clip-path="url(#clip900)" d="M785.073 1479.7 L789.957 1479.7 L789.957 1485.58 L785.073 1485.58 L785.073 1479.7 Z" fill="#000000" fill-rule="nonzero" fill-opacity="1" /><path clip-path="url(#clip900)" d="M800.189 1451.02 L818.545 1451.02 L818.545 1454.96 L804.471 1454.96 L804.471 1463.43 Q805.489 1463.08 806.508 1462.92 Q807.527 1462.73 808.545 1462.73 Q814.332 1462.73 817.712 1465.9 Q821.091 1469.08 821.091 1474.49 Q821.091 1480.07 817.619 1483.17 Q814.147 1486.25 807.827 1486.25 Q805.652 1486.25 803.383 1485.88 Q801.138 1485.51 798.73 1484.77 L798.73 1480.07 Q800.814 1481.2 803.036 1481.76 Q805.258 1482.32 807.735 1482.32 Q811.739 1482.32 814.077 1480.21 Q816.415 1478.1 816.415 1474.49 Q816.415 1470.88 814.077 1468.77 Q811.739 1466.67 807.735 1466.67 Q805.86 1466.67 803.985 1467.08 Q802.133 1467.5 800.189 1468.38 L800.189 1451.02 Z" fill="#000000" fill-rule="nonzero" fill-opacity="1" /><path clip-path="url(#clip900)" d="M1254.81 1454.1 Q1251.2 1454.1 1249.37 1457.66 Q1247.56 1461.2 1247.56 1468.33 Q1247.56 1475.44 1249.37 1479.01 Q1251.2 1482.55 1254.81 1482.55 Q1258.44 1482.55 1260.25 1479.01 Q1262.07 1475.44 1262.07 1468.33 Q1262.07 1461.2 1260.25 1457.66 Q1258.44 1454.1 1254.81 1454.1 M1254.81 1450.39 Q1260.62 1450.39 1263.67 1455 Q1266.75 1459.58 1266.75 1468.33 Q1266.75 1477.06 1263.67 1481.67 Q1260.62 1486.25 1254.81 1486.25 Q1249 1486.25 1245.92 1481.67 Q1242.86 1477.06 1242.86 1468.33 Q1242.86 1459.58 1245.92 1455 Q1249 1450.39 1254.81 1450.39 Z" fill="#000000" fill-rule="nonzero" fill-opacity="1" /><path clip-path="url(#clip900)" d="M1274.97 1479.7 L1279.85 1479.7 L1279.85 1485.58 L1274.97 1485.58 L1274.97 1479.7 Z" fill="#000000" fill-rule="nonzero" fill-opacity="1" /><path clip-path="url(#clip900)" d="M1300.04 1454.1 Q1296.43 1454.1 1294.6 1457.66 Q1292.79 1461.2 1292.79 1468.33 Q1292.79 1475.44 1294.6 1479.01 Q1296.43 1482.55 1300.04 1482.55 Q1303.67 1482.55 1305.48 1479.01 Q1307.31 1475.44 1307.31 1468.33 Q1307.31 1461.2 1305.48 1457.66 Q1303.67 1454.1 1300.04 1454.1 M1300.04 1450.39 Q1305.85 1450.39 1308.9 1455 Q1311.98 1459.58 1311.98 1468.33 Q1311.98 1477.06 1308.9 1481.67 Q1305.85 1486.25 1300.04 1486.25 Q1294.23 1486.25 1291.15 1481.67 Q1288.09 1477.06 1288.09 1468.33 Q1288.09 1459.58 1291.15 1455 Q1294.23 1450.39 1300.04 1450.39 Z" fill="#000000" fill-rule="nonzero" fill-opacity="1" /><path clip-path="url(#clip900)" d="M1764.61 1454.1 Q1761 1454.1 1759.17 1457.66 Q1757.36 1461.2 1757.36 1468.33 Q1757.36 1475.44 1759.17 1479.01 Q1761 1482.55 1764.61 1482.55 Q1768.24 1482.55 1770.05 1479.01 Q1771.88 1475.44 1771.88 1468.33 Q1771.88 1461.2 1770.05 1457.66 Q1768.24 1454.1 1764.61 1454.1 M1764.61 1450.39 Q1770.42 1450.39 1773.47 1455 Q1776.55 1459.58 1776.55 1468.33 Q1776.55 1477.06 1773.47 1481.67 Q1770.42 1486.25 1764.61 1486.25 Q1758.8 1486.25 1755.72 1481.67 Q1752.66 1477.06 1752.66 1468.33 Q1752.66 1459.58 1755.72 1455 Q1758.8 1450.39 1764.61 1450.39 Z" fill="#000000" fill-rule="nonzero" fill-opacity="1" /><path clip-path="url(#clip900)" d="M1784.77 1479.7 L1789.65 1479.7 L1789.65 1485.58 L1784.77 1485.58 L1784.77 1479.7 Z" fill="#000000" fill-rule="nonzero" fill-opacity="1" /><path clip-path="url(#clip900)" d="M1799.89 1451.02 L1818.24 1451.02 L1818.24 1454.96 L1804.17 1454.96 L1804.17 1463.43 Q1805.19 1463.08 1806.21 1462.92 Q1807.22 1462.73 1808.24 1462.73 Q1814.03 1462.73 1817.41 1465.9 Q1820.79 1469.08 1820.79 1474.49 Q1820.79 1480.07 1817.32 1483.17 Q1813.84 1486.25 1807.53 1486.25 Q1805.35 1486.25 1803.08 1485.88 Q1800.84 1485.51 1798.43 1484.77 L1798.43 1480.07 Q1800.51 1481.2 1802.73 1481.76 Q1804.96 1482.32 1807.43 1482.32 Q1811.44 1482.32 1813.78 1480.21 Q1816.11 1478.1 1816.11 1474.49 Q1816.11 1470.88 1813.78 1468.77 Q1811.44 1466.67 1807.43 1466.67 Q1805.56 1466.67 1803.68 1467.08 Q1801.83 1467.5 1799.89 1468.38 L1799.89 1451.02 Z" fill="#000000" fill-rule="nonzero" fill-opacity="1" /><path clip-path="url(#clip900)" d="M2263.18 1481.64 L2270.82 1481.64 L2270.82 1455.28 L2262.51 1456.95 L2262.51 1452.69 L2270.78 1451.02 L2275.45 1451.02 L2275.45 1481.64 L2283.09 1481.64 L2283.09 1485.58 L2263.18 1485.58 L2263.18 1481.64 Z" fill="#000000" fill-rule="nonzero" fill-opacity="1" /><path clip-path="url(#clip900)" d="M2292.54 1479.7 L2297.42 1479.7 L2297.42 1485.58 L2292.54 1485.58 L2292.54 1479.7 Z" fill="#000000" fill-rule="nonzero" fill-opacity="1" /><path clip-path="url(#clip900)" d="M2317.61 1454.1 Q2313.99 1454.1 2312.17 1457.66 Q2310.36 1461.2 2310.36 1468.33 Q2310.36 1475.44 2312.17 1479.01 Q2313.99 1482.55 2317.61 1482.55 Q2321.24 1482.55 2323.05 1479.01 Q2324.87 1475.44 2324.87 1468.33 Q2324.87 1461.2 2323.05 1457.66 Q2321.24 1454.1 2317.61 1454.1 M2317.61 1450.39 Q2323.42 1450.39 2326.47 1455 Q2329.55 1459.58 2329.55 1468.33 Q2329.55 1477.06 2326.47 1481.67 Q2323.42 1486.25 2317.61 1486.25 Q2311.8 1486.25 2308.72 1481.67 Q2305.66 1477.06 2305.66 1468.33 Q2305.66 1459.58 2308.72 1455 Q2311.8 1450.39 2317.61 1450.39 Z" fill="#000000" fill-rule="nonzero" fill-opacity="1" /><path clip-path="url(#clip900)" d="M1191.17 1532.4 L1197.38 1532.4 L1208.52 1562.31 L1219.66 1532.4 L1225.87 1532.4 L1212.5 1568.04 L1204.54 1568.04 L1191.17 1532.4 Z" fill="#000000" fill-rule="nonzero" fill-opacity="1" /><path clip-path="url(#clip900)" d="M1250.15 1550.12 Q1243.05 1550.12 1240.32 1551.75 Q1237.58 1553.37 1237.58 1557.29 Q1237.58 1560.4 1239.62 1562.25 Q1241.68 1564.07 1245.22 1564.07 Q1250.09 1564.07 1253.02 1560.63 Q1255.98 1557.16 1255.98 1551.43 L1255.98 1550.12 L1250.15 1550.12 M1261.83 1547.71 L1261.83 1568.04 L1255.98 1568.04 L1255.98 1562.63 Q1253.97 1565.88 1250.98 1567.44 Q1247.99 1568.97 1243.66 1568.97 Q1238.18 1568.97 1234.94 1565.91 Q1231.72 1562.82 1231.72 1557.67 Q1231.72 1551.65 1235.73 1548.6 Q1239.77 1545.54 1247.76 1545.54 L1255.98 1545.54 L1255.98 1544.97 Q1255.98 1540.93 1253.3 1538.73 Q1250.66 1536.5 1245.85 1536.5 Q1242.8 1536.5 1239.9 1537.23 Q1237.01 1537.97 1234.33 1539.43 L1234.33 1534.02 Q1237.55 1532.78 1240.57 1532.17 Q1243.59 1531.54 1246.46 1531.54 Q1254.19 1531.54 1258.01 1535.55 Q1261.83 1539.56 1261.83 1547.71 Z" fill="#000000" fill-rule="nonzero" fill-opacity="1" /><path clip-path="url(#clip900)" d="M1273.9 1518.52 L1279.75 1518.52 L1279.75 1568.04 L1273.9 1568.04 L1273.9 1518.52 Z" fill="#000000" fill-rule="nonzero" fill-opacity="1" /><path clip-path="url(#clip900)" d="M1291.4 1553.98 L1291.4 1532.4 L1297.26 1532.4 L1297.26 1553.75 Q1297.26 1558.81 1299.23 1561.36 Q1301.2 1563.87 1305.15 1563.87 Q1309.89 1563.87 1312.63 1560.85 Q1315.4 1557.83 1315.4 1552.61 L1315.4 1532.4 L1321.26 1532.4 L1321.26 1568.04 L1315.4 1568.04 L1315.4 1562.57 Q1313.27 1565.82 1310.43 1567.41 Q1307.63 1568.97 1303.91 1568.97 Q1297.77 1568.97 1294.58 1565.15 Q1291.4 1561.33 1291.4 1553.98 M1306.14 1531.54 L1306.14 1531.54 Z" fill="#000000" fill-rule="nonzero" fill-opacity="1" /><path clip-path="url(#clip900)" d="M1363.81 1548.76 L1363.81 1551.62 L1336.88 1551.62 Q1337.27 1557.67 1340.51 1560.85 Q1343.79 1564 1349.62 1564 Q1352.99 1564 1356.14 1563.17 Q1359.32 1562.35 1362.44 1560.69 L1362.44 1566.23 Q1359.29 1567.57 1355.98 1568.27 Q1352.67 1568.97 1349.27 1568.97 Q1340.73 1568.97 1335.74 1564 Q1330.77 1559.04 1330.77 1550.57 Q1330.77 1541.82 1335.48 1536.69 Q1340.23 1531.54 1348.25 1531.54 Q1355.44 1531.54 1359.61 1536.18 Q1363.81 1540.8 1363.81 1548.76 M1357.95 1547.04 Q1357.89 1542.23 1355.25 1539.37 Q1352.64 1536.5 1348.31 1536.5 Q1343.41 1536.5 1340.45 1539.27 Q1337.52 1542.04 1337.07 1547.07 L1357.95 1547.04 Z" fill="#000000" fill-rule="nonzero" fill-opacity="1" /><polyline clip-path="url(#clip900)" style="stroke:#000000; stroke-linecap:round; stroke-linejoin:round; stroke-width:4; stroke-opacity:1; fill:none" points="202.227,1423.18 202.227,47.2441 "/>
<polyline clip-path="url(#clip900)" style="stroke:#000000; stroke-linecap:round; stroke-linejoin:round; stroke-width:4; stroke-opacity:1; fill:none" points="202.227,1423.18 221.125,1423.18 "/>
<polyline clip-path="url(#clip900)" style="stroke:#000000; stroke-linecap:round; stroke-linejoin:round; stroke-width:4; stroke-opacity:1; fill:none" points="202.227,1147.99 221.125,1147.99 "/>
<polyline clip-path="url(#clip900)" style="stroke:#000000; stroke-linecap:round; stroke-linejoin:round; stroke-width:4; stroke-opacity:1; fill:none" points="202.227,872.806 221.125,872.806 "/>
<polyline clip-path="url(#clip900)" style="stroke:#000000; stroke-linecap:round; stroke-linejoin:round; stroke-width:4; stroke-opacity:1; fill:none" points="202.227,597.618 221.125,597.618 "/>
<polyline clip-path="url(#clip900)" style="stroke:#000000; stroke-linecap:round; stroke-linejoin:round; stroke-width:4; stroke-opacity:1; fill:none" points="202.227,322.431 221.125,322.431 "/>
<polyline clip-path="url(#clip900)" style="stroke:#000000; stroke-linecap:round; stroke-linejoin:round; stroke-width:4; stroke-opacity:1; fill:none" points="202.227,47.2441 221.125,47.2441 "/>
<path clip-path="url(#clip900)" d="M154.283 1408.98 Q150.672 1408.98 148.843 1412.54 Q147.038 1416.08 147.038 1423.21 Q147.038 1430.32 148.843 1433.89 Q150.672 1437.43 154.283 1437.43 Q157.917 1437.43 159.723 1433.89 Q161.552 1430.32 161.552 1423.21 Q161.552 1416.08 159.723 1412.54 Q157.917 1408.98 154.283 1408.98 M154.283 1405.27 Q160.093 1405.27 163.149 1409.88 Q166.227 1414.46 166.227 1423.21 Q166.227 1431.94 163.149 1436.55 Q160.093 1441.13 154.283 1441.13 Q148.473 1441.13 145.394 1436.55 Q142.339 1431.94 142.339 1423.21 Q142.339 1414.46 145.394 1409.88 Q148.473 1405.27 154.283 1405.27 Z" fill="#000000" fill-rule="nonzero" fill-opacity="1" /><path clip-path="url(#clip900)" d="M149.908 1161.34 L166.227 1161.34 L166.227 1165.27 L144.283 1165.27 L144.283 1161.34 Q146.945 1158.58 151.528 1153.95 Q156.135 1149.3 157.315 1147.96 Q159.561 1145.43 160.44 1143.7 Q161.343 1141.94 161.343 1140.25 Q161.343 1137.5 159.399 1135.76 Q157.478 1134.02 154.376 1134.02 Q152.177 1134.02 149.723 1134.79 Q147.292 1135.55 144.515 1137.1 L144.515 1132.38 Q147.339 1131.25 149.792 1130.67 Q152.246 1130.09 154.283 1130.09 Q159.653 1130.09 162.848 1132.77 Q166.042 1135.46 166.042 1139.95 Q166.042 1142.08 165.232 1144 Q164.445 1145.9 162.339 1148.49 Q161.76 1149.16 158.658 1152.38 Q155.556 1155.57 149.908 1161.34 Z" fill="#000000" fill-rule="nonzero" fill-opacity="1" /><path clip-path="url(#clip900)" d="M156.644 859.6 L144.839 878.049 L156.644 878.049 L156.644 859.6 M155.417 855.526 L161.297 855.526 L161.297 878.049 L166.227 878.049 L166.227 881.937 L161.297 881.937 L161.297 890.086 L156.644 890.086 L156.644 881.937 L141.042 881.937 L141.042 877.424 L155.417 855.526 Z" fill="#000000" fill-rule="nonzero" fill-opacity="1" /><path clip-path="url(#clip900)" d="M154.7 595.755 Q151.552 595.755 149.7 597.908 Q147.871 600.061 147.871 603.81 Q147.871 607.537 149.7 609.713 Q151.552 611.866 154.7 611.866 Q157.848 611.866 159.677 609.713 Q161.528 607.537 161.528 603.81 Q161.528 600.061 159.677 597.908 Q157.848 595.755 154.7 595.755 M163.982 581.102 L163.982 585.362 Q162.223 584.528 160.417 584.088 Q158.635 583.649 156.876 583.649 Q152.246 583.649 149.792 586.774 Q147.362 589.899 147.015 596.218 Q148.38 594.204 150.441 593.139 Q152.501 592.051 154.978 592.051 Q160.186 592.051 163.195 595.223 Q166.227 598.371 166.227 603.81 Q166.227 609.135 163.079 612.352 Q159.931 615.57 154.7 615.57 Q148.704 615.57 145.533 610.986 Q142.362 606.38 142.362 597.653 Q142.362 589.459 146.251 584.598 Q150.14 579.713 156.69 579.713 Q158.45 579.713 160.232 580.061 Q162.038 580.408 163.982 581.102 Z" fill="#000000" fill-rule="nonzero" fill-opacity="1" /><path clip-path="url(#clip900)" d="M154.376 323.299 Q151.042 323.299 149.121 325.082 Q147.223 326.864 147.223 329.989 Q147.223 333.114 149.121 334.896 Q151.042 336.679 154.376 336.679 Q157.709 336.679 159.63 334.896 Q161.552 333.091 161.552 329.989 Q161.552 326.864 159.63 325.082 Q157.732 323.299 154.376 323.299 M149.7 321.309 Q146.691 320.568 145.001 318.508 Q143.334 316.447 143.334 313.485 Q143.334 309.341 146.274 306.934 Q149.237 304.526 154.376 304.526 Q159.538 304.526 162.477 306.934 Q165.417 309.341 165.417 313.485 Q165.417 316.447 163.727 318.508 Q162.061 320.568 159.075 321.309 Q162.454 322.096 164.329 324.387 Q166.227 326.679 166.227 329.989 Q166.227 335.012 163.149 337.697 Q160.093 340.383 154.376 340.383 Q148.658 340.383 145.579 337.697 Q142.524 335.012 142.524 329.989 Q142.524 326.679 144.422 324.387 Q146.32 322.096 149.7 321.309 M147.987 313.924 Q147.987 316.61 149.653 318.114 Q151.343 319.619 154.376 319.619 Q157.385 319.619 159.075 318.114 Q160.788 316.61 160.788 313.924 Q160.788 311.239 159.075 309.735 Q157.385 308.23 154.376 308.23 Q151.343 308.23 149.653 309.735 Q147.987 311.239 147.987 313.924 Z" fill="#000000" fill-rule="nonzero" fill-opacity="1" /><path clip-path="url(#clip900)" d="M114.931 60.5889 L122.57 60.5889 L122.57 34.2233 L114.26 35.89 L114.26 31.6308 L122.524 29.9641 L127.2 29.9641 L127.2 60.5889 L134.839 60.5889 L134.839 64.5241 L114.931 64.5241 L114.931 60.5889 Z" fill="#000000" fill-rule="nonzero" fill-opacity="1" /><path clip-path="url(#clip900)" d="M154.283 33.0428 Q150.672 33.0428 148.843 36.6076 Q147.038 40.1492 147.038 47.2788 Q147.038 54.3853 148.843 57.9501 Q150.672 61.4917 154.283 61.4917 Q157.917 61.4917 159.723 57.9501 Q161.552 54.3853 161.552 47.2788 Q161.552 40.1492 159.723 36.6076 Q157.917 33.0428 154.283 33.0428 M154.283 29.3391 Q160.093 29.3391 163.149 33.9456 Q166.227 38.5289 166.227 47.2788 Q166.227 56.0056 163.149 60.6121 Q160.093 65.1954 154.283 65.1954 Q148.473 65.1954 145.394 60.6121 Q142.339 56.0056 142.339 47.2788 Q142.339 38.5289 145.394 33.9456 Q148.473 29.3391 154.283 29.3391 Z" fill="#000000" fill-rule="nonzero" fill-opacity="1" /><path clip-path="url(#clip900)" d="M28.3562 880.732 L28.3562 852.914 L33.7034 852.914 L59.3254 874.939 L59.3254 852.914 L64.0042 852.914 L64.0042 881.528 L58.657 881.528 L33.035 859.502 L33.035 880.732 L28.3562 880.732 Z" fill="#000000" fill-rule="nonzero" fill-opacity="1" /><path clip-path="url(#clip900)" d="M29.7248 797.596 L35.1993 797.596 Q33.8307 800.079 33.1623 802.593 Q32.4621 805.076 32.4621 807.622 Q32.4621 813.319 36.0905 816.47 Q39.6872 819.621 46.212 819.621 Q52.7369 819.621 56.3653 816.47 Q59.9619 813.319 59.9619 807.622 Q59.9619 805.076 59.2935 802.593 Q58.5933 800.079 57.2247 797.596 L62.6355 797.596 Q63.7814 800.047 64.3543 802.688 Q64.9272 805.298 64.9272 808.258 Q64.9272 816.311 59.8664 821.054 Q54.8057 825.796 46.212 825.796 Q37.491 825.796 32.4939 821.022 Q27.4968 816.216 27.4968 807.877 Q27.4968 805.171 28.0697 802.593 Q28.6108 800.015 29.7248 797.596 Z" fill="#000000" fill-rule="nonzero" fill-opacity="1" /><path clip-path="url(#clip900)" d="M44.7161 756.919 L47.5806 756.919 L47.5806 783.846 Q53.6281 783.464 56.8109 780.218 Q59.9619 776.939 59.9619 771.115 Q59.9619 767.741 59.1344 764.59 Q58.3069 761.407 56.6518 758.288 L62.1899 758.288 Q63.5267 761.439 64.227 764.749 Q64.9272 768.059 64.9272 771.465 Q64.9272 779.995 59.9619 784.992 Q54.9967 789.957 46.5303 789.957 Q37.7774 789.957 32.6531 785.246 Q27.4968 780.504 27.4968 772.483 Q27.4968 765.29 32.1438 761.12 Q36.7589 756.919 44.7161 756.919 M42.9973 762.775 Q38.1912 762.839 35.3266 765.481 Q32.4621 768.091 32.4621 772.42 Q32.4621 777.321 35.2312 780.281 Q38.0002 783.209 43.0292 783.655 L42.9973 762.775 Z" fill="#000000" fill-rule="nonzero" fill-opacity="1" /><path clip-path="url(#clip900)" d="M42.4881 717.674 L64.0042 717.674 L64.0042 723.531 L42.679 723.531 Q37.6183 723.531 35.1038 725.504 Q32.5894 727.478 32.5894 731.424 Q32.5894 736.167 35.6131 738.904 Q38.6368 741.641 43.8567 741.641 L64.0042 741.641 L64.0042 747.53 L28.3562 747.53 L28.3562 741.641 L33.8944 741.641 Q30.6797 739.541 29.0883 736.708 Q27.4968 733.843 27.4968 730.119 Q27.4968 723.976 31.3163 720.825 Q35.1038 717.674 42.4881 717.674 Z" fill="#000000" fill-rule="nonzero" fill-opacity="1" /><path clip-path="url(#clip900)" d="M18.2347 700.201 L28.3562 700.201 L28.3562 688.138 L32.9077 688.138 L32.9077 700.201 L52.2594 700.201 Q56.6199 700.201 57.8613 699.023 Q59.1026 697.813 59.1026 694.153 L59.1026 688.138 L64.0042 688.138 L64.0042 694.153 Q64.0042 700.933 61.4897 703.511 Q58.9434 706.089 52.2594 706.089 L32.9077 706.089 L32.9077 710.386 L28.3562 710.386 L28.3562 706.089 L18.2347 706.089 L18.2347 700.201 Z" fill="#000000" fill-rule="nonzero" fill-opacity="1" /><path clip-path="url(#clip900)" d="M44.7161 649.943 L47.5806 649.943 L47.5806 676.87 Q53.6281 676.488 56.8109 673.242 Q59.9619 669.963 59.9619 664.139 Q59.9619 660.765 59.1344 657.614 Q58.3069 654.431 56.6518 651.312 L62.1899 651.312 Q63.5267 654.463 64.227 657.773 Q64.9272 661.083 64.9272 664.489 Q64.9272 673.019 59.9619 678.016 Q54.9967 682.981 46.5303 682.981 Q37.7774 682.981 32.6531 678.271 Q27.4968 673.528 27.4968 665.507 Q27.4968 658.314 32.1438 654.145 Q36.7589 649.943 44.7161 649.943 M42.9973 655.8 Q38.1912 655.863 35.3266 658.505 Q32.4621 661.115 32.4621 665.444 Q32.4621 670.345 35.2312 673.305 Q38.0002 676.234 43.0292 676.679 L42.9973 655.8 Z" fill="#000000" fill-rule="nonzero" fill-opacity="1" /><path clip-path="url(#clip900)" d="M33.8307 619.674 Q33.2578 620.661 33.0032 621.839 Q32.7167 622.985 32.7167 624.385 Q32.7167 629.35 35.9632 632.024 Q39.1779 634.666 45.2253 634.666 L64.0042 634.666 L64.0042 640.554 L28.3562 640.554 L28.3562 634.666 L33.8944 634.666 Q30.6479 632.82 29.0883 629.86 Q27.4968 626.899 27.4968 622.666 Q27.4968 622.062 27.5923 621.329 Q27.656 620.597 27.8151 619.706 L33.8307 619.674 Z" fill="#000000" fill-rule="nonzero" fill-opacity="1" /><path clip-path="url(#clip900)" d="M29.4065 590.806 L34.9447 590.806 Q33.6716 593.289 33.035 595.962 Q32.3984 598.636 32.3984 601.5 Q32.3984 605.861 33.7352 608.057 Q35.072 610.221 37.7456 610.221 Q39.7826 610.221 40.9603 608.662 Q42.1061 607.102 43.1565 602.391 L43.6021 600.386 Q44.9389 594.148 47.3897 591.538 Q49.8086 588.896 54.1691 588.896 Q59.1344 588.896 62.0308 592.843 Q64.9272 596.758 64.9272 603.633 Q64.9272 606.497 64.3543 609.617 Q63.8132 612.704 62.6992 616.141 L56.6518 616.141 Q58.3387 612.895 59.198 609.744 Q60.0256 606.593 60.0256 603.505 Q60.0256 599.368 58.6251 597.14 Q57.1929 594.912 54.6147 594.912 Q52.2276 594.912 50.9545 596.535 Q49.6813 598.126 48.5037 603.569 L48.0262 605.606 Q46.8804 611.049 44.5251 613.468 Q42.138 615.887 38.0002 615.887 Q32.9713 615.887 30.2341 612.322 Q27.4968 608.757 27.4968 602.201 Q27.4968 598.954 27.9743 596.089 Q28.4517 593.225 29.4065 590.806 Z" fill="#000000" fill-rule="nonzero" fill-opacity="1" /><polyline clip-path="url(#clip902)" style="stroke:#009af9; stroke-linecap:round; stroke-linejoin:round; stroke-width:8; stroke-opacity:1; fill:none" points="2291.89,1423.18 2242.76,1380.18 2100.12,1337.18 1877.79,1294.19 1597.31,1251.19 1285.84,1208.19 973.554,1165.19 690.704,1122.19 464.686,1079.2 317.392,1036.2 263.091,993.2 307.043,950.202 444.989,907.204 663.568,864.206 941.608,821.208 1252.18,778.21 1565.19,735.212 1850.33,692.214 2079.97,649.216 2231.88,606.218 2291.33,563.22 2252.58,520.222 2119.36,477.224 1904.59,434.226 1629.07,391.228 1319.49,348.23 1005.84,305.232 718.486,262.234 485.277,219.236 328.799,176.238 264.208,133.24 297.762,90.2421 422.735,47.2441 "/>
</svg>
